PathFileType	4	(X/Y/Z)	Patient4_TMGait_0pt2_02_right_10.trc.trc
DataRate	CameraRate	NumFrames	NumMarkers	Units	OrigDataRate	OrigDataStartFrame	OrigNumFrames
38.997214484680	38.997214484680	4	33	mm	38.997214484680	89	       141
Frame#	Time	R.Midfoot.Superior			Sacral			L.Shoulder			Chest			R.Shoulder			Neck			R.ASIS			L.ASIS			R.Thigh.Superior			R.Thigh.Lateral			R.Thigh.Inferior			R.Patella			L.Thigh.Superior			L.Thigh.Lateral			L.Thigh.Inferior			L.Patella			L.Shank.Superior			L.Shank.Lateral			L.Shank.Inferior			R.Shank.Superior			R.Shank.Lateral			R.Shank.Inferior			R.Heel			R.Midfoot.Lateral			R.Toe			L.Heel			L.Midfoot.Lateral			L.Midfoot.Superior			L.Toe			L.Elbow			L.Wrist			R.Elbow			R.Wrist			
		X1	Y1	Z1	X2	Y2	Z2	X3	Y3	Z3	X4	Y4	Z4	X5	Y5	Z5	X6	Y6	Z6	X7	Y7	Z7	X8	Y8	Z8	X9	Y9	Z9	X10	Y10	Z10	X11	Y11	Z11	X12	Y12	Z12	X13	Y13	Z13	X14	Y14	Z14	X15	Y15	Z15	X16	Y16	Z16	X17	Y17	Z17	X18	Y18	Z18	X19	Y19	Z19	X20	Y20	Z20	X21	Y21	Z21	X22	Y22	Z22	X23	Y23	Z23	X24	Y24	Z24	X25	Y25	Z25	X26	Y26	Z26	X27	Y27	Z27	X28	Y28	Z28	X29	Y29	Z29	X30	Y30	Z30	X31	Y31	Z31	X32	Y32	Z32	X33	Y33	Z33	

89	23.786571428571	799.307679727013	99.734931435431	602.934008183566	744.760722176689	1011.156788714929	541.862587122061	867.563101301664	1446.122815016259	319.008400586573	1024.929232568328	1352.353200032980	408.193009141909	1040.924825298447	1421.460334954368	600.030947623532	915.944026672931	1485.300217028944	481.073970323217	992.337688131673	922.106558969019	566.656311179495	888.629803342922	964.571698311315	317.203810831411	988.962764758855	714.434990366449	539.394042113449	914.664857759313	614.318759822243	625.359646729356	958.641102541762	551.878214232376	530.142469495959	946.242026252693	456.613153600448	546.685821135057	963.572964663004	764.088800734228	339.730905592774	886.473547663138	634.462865679793	285.659566180326	991.550418883986	568.457398336022	330.339485570078	1001.944061849594	494.943108895141	332.322092522903	972.981712327904	421.819887706244	326.688585681933	877.390914621898	309.820317172592	281.457011532971	936.519645375680	195.012805349080	338.694293075120	888.189379795359	381.987979541786	566.823350118364	797.169157844708	308.144706508386	645.870305906614	799.140377676761	203.190601830372	586.930936349645	621.038641097939	67.925317858048	583.056559716616	708.704068465991	49.954308318089	649.777446143156	913.490610720790	36.832941060928	623.557321672649	811.684695950276	38.953791609738	383.745999439102	879.352234276994	35.872043553649	297.938220788333	965.668931291517	96.910779452974	318.407133828670	1090.679034148697	42.404923433552	279.913916957155	634.139647141177	1183.254325736854	294.914391966898	529.319684247528	954.251622009861	371.455686743441	1280.377327197521	1182.117246400219	654.424355971783	1457.225772672245	1295.657370565530	510.004213365125	
90	23.812214285714	794.978541626669	100.252484869221	602.959975410897	742.423500853177	1011.625849019171	534.856449859195	867.977587651470	1446.862834708552	314.353445039423	1024.220282817874	1352.955993545103	405.357051338802	1037.752189751312	1421.431891300377	597.639228509668	914.585001842671	1485.654705603430	477.328216554688	989.690473971871	922.303808597932	562.297951010016	888.703774039980	964.894243934025	311.783606281084	986.356313203833	714.527287658928	535.713041651299	911.534075951717	615.007615378405	621.938116625597	956.101208005973	551.919824997419	527.395760072228	943.483274770421	456.621682268751	544.402068789422	962.425040396028	763.601520709214	335.144843859825	884.746851477399	634.096404968426	281.550706084582	989.178537026070	567.765183214678	327.118485651599	999.208047490317	494.217774104321	329.575760106625	969.813625479473	421.070737596396	324.414224281718	873.728172002872	309.287553180520	279.775563057437	931.969401294119	194.571991365318	337.984968573545	885.040587684967	382.387847610691	564.931977078887	793.495322262761	309.556690712050	644.249102287283	795.153992461142	204.100286476929	586.208440091337	616.476005526247	69.993164974628	583.005720025382	703.947341761987	51.285984564623	649.731809565116	908.407143142773	36.703180729428	623.588388729591	806.510134905535	38.865582831691	383.742156297134	874.150957891087	35.790144760128	297.897433592712	960.436753716200	96.808291432269	318.374240379441	1085.502688802560	42.365025101856	279.884305140153	635.110569570603	1183.795203087577	286.051470703627	529.512029172107	954.178393173262	359.725376024245	1275.256840818398	1179.921378288873	654.669434704750	1455.875133937735	1291.273299937503	512.923009966122	
91	23.837857142857	790.770371783852	100.864469491517	603.046844705635	740.172486197877	1012.086606082272	527.691349975955	868.448975421073	1447.706193028979	309.992997540417	1023.531905360607	1353.701630520863	402.856223402234	1034.418297363898	1421.380339238916	595.621658110462	913.245865317412	1486.050883012177	473.921788352361	987.108267726305	922.523357590431	557.864207455587	888.958134996273	965.329793925451	306.299682288420	983.875790695536	714.662597383153	531.939693202194	908.535349656974	615.740444638032	618.423595370420	953.750413629305	551.996343342003	524.580007972536	940.926215490180	456.654398217579	542.047033661455	961.386631154998	763.140211497694	330.519937057519	883.096114815276	633.762104506136	277.405232216958	986.770088264470	567.065467549541	323.996416457044	996.424871557709	493.532420945160	326.954969239376	966.628899646943	420.387488225831	322.243871400890	870.164309885422	308.785424608709	278.143381547384	927.485539015271	194.189227899486	337.340158124364	882.064508554430	382.822937619296	562.979402619868	789.949109606751	311.062065875435	642.560893044624	791.285612140242	205.082994193758	585.457011971355	611.973213330136	72.230415713299	582.935932024345	699.230021042942	52.719658324645	649.672796335744	903.336053045937	36.573614095729	623.613332720577	801.376897701022	38.860710639218	383.751223682779	868.998783540339	35.775776370657	297.897648663188	955.285388852038	96.715427562394	318.361912158843	1080.366330218605	42.235615260330	279.843930960807	636.447065121492	1184.126025099790	277.192899739719	530.650917624312	953.526736736889	347.494868244640	1269.424129933230	1176.979073522061	655.241121235307	1454.352284650489	1285.535322531833	516.434535531864	
92	23.863500000000	786.643886878565	101.532465700630	603.159608053811	737.982142044486	1012.484405922428	520.403887937513	868.978918237575	1448.580783647382	305.944170503442	1022.860270671719	1354.503980721452	400.695955824596	1030.940758467159	1421.215845024105	593.974483408169	911.944429093877	1486.422213097752	470.853043585122	984.572291064754	922.710323363545	553.381001873547	889.335988899912	965.810122659686	300.785453338756	981.508533377622	714.790385658780	528.096293336779	905.653419523990	616.463152460643	614.831015720427	951.573042270627	552.057513182898	521.705761967263	938.557413067074	456.660569675676	539.627491160511	960.463647310040	762.694639849313	325.898972564304	881.570734319815	633.434182803671	273.251030136327	984.407490091625	566.358503675346	320.973643273573	993.689160695234	492.865692215657	324.446834007390	963.499892766210	419.742588271547	320.167422625796	866.730792846643	308.307781860291	276.549894544974	923.090250539969	193.850028011675	336.749327493612	879.246943887605	383.237783758570	560.969151827968	786.509891493696	312.604558971566	640.803018668502	787.516272190599	206.086470237334	584.671884829170	607.511018801784	74.550821516296	582.835577795130	694.542767587418	54.200130634970	649.593930433370	898.287743134367	36.453124632817	623.628861795883	796.276805357484	38.927185490379	383.767849449704	863.888488315048	35.817049762399	297.932009106490	950.203434170854	96.632068329123	318.366291270356	1075.264235582112	42.028989756132	279.796832388521	638.193441197032	1184.111513689160	268.319175898942	532.889369316949	952.111387418092	334.630479673941	1262.698076929662	1173.043797270839	656.134459947904	1452.538818581148	1277.993383431065	520.573719575088	
